<svg id="图层_1" data-name="图层 1" xmlns="http://www.w3.org/2000/svg" xmlns:xlink="http://www.w3.org/1999/xlink" viewBox="0 0 360 500"><defs><style>.cls-1{fill:url(#未命名的渐变_7);}.cls-2{fill:#fff;}</style><linearGradient id="未命名的渐变_7" x1="180" y1="500" x2="180" gradientUnits="userSpaceOnUse"><stop offset="0" stop-color="#4cb6cb"/><stop offset="1" stop-color="#2da4de"/></linearGradient></defs><title>login-bg</title><path class="cls-1" d="M180,500h0c-52.66,0-180,0-180-97.82V97.82C0,0,127.34,0,180,0h0c52.66,0,180,0,180,97.82V402.18C360,500,232.66,500,180,500Z"/><path class="cls-2" d="M180,480c-25.52,0-68.23,0-103.68-11.29C37.9,456.49,20,435.35,20,402.18V97.82c0-33.16,17.9-54.3,56.32-66.53C111.77,20,154.48,20,180,20s68.23,0,103.68,11.29C322.11,43.51,340,64.65,340,97.82V402.18c0,33.16-17.89,54.3-56.32,66.53C248.23,480,205.52,480,180,480Z"/></svg>