<svg id="图层_1" data-name="图层 1" xmlns="http://www.w3.org/2000/svg" viewBox="0 0 180 54"><defs><style>.cls-1{fill:#34a4dd;}.cls-2{fill:#767777;}</style></defs><title>login-logo</title><path class="cls-1" d="M34.34,15.63a2.63,2.63,0,0,0,1.91-1.5,15,15,0,0,1,28.62,6.22,30.2,30.2,0,0,1-.34,3.23,2.68,2.68,0,0,0,0,.43,2.63,2.63,0,0,0,2.14,2.59c2.87,0.37,3,1.7,3.42,3.56a6.07,6.07,0,0,1,3-1.07,4.69,4.69,0,0,1,2.18.63s0.43-4.85-5.29-7.59c0.07-.73.11-1.32,0.11-1.78A20.19,20.19,0,0,0,33.06,9.09a13.82,13.82,0,0,0-7.18-2,14,14,0,0,0-14,14.08,12,12,0,0,1,2.77-.37,8.84,8.84,0,0,1,2.47.37,8.78,8.78,0,0,1,8.74-8.8A8.67,8.67,0,0,1,32,14.92a2.59,2.59,0,0,0,1.83.76A2.54,2.54,0,0,0,34.34,15.63Z"/><path class="cls-1" d="M20.26,46.73a5.93,5.93,0,0,0-2,.63,10.39,10.39,0,0,1-4.4,1.11Q6.75,48,6.28,39.61q0.47-8.7,7.54-9.17a12.55,12.55,0,0,1,4.24.79,6.1,6.1,0,0,0,2,.47q2.2-.16,2.36-2.69-0.32-4-8.64-4.43Q0.94,25.54,0,39.45,0.94,53.21,13.82,54q9-.16,9.11-4.43Q22.62,46.89,20.26,46.73Z"/><path class="cls-1" d="M28.27,22.69q-2.67.16-2.83,3.16v25q0.15,3,2.83,3,2.83,0,3-3v-25Q31.1,22.85,28.27,22.69Z"/><path class="cls-1" d="M43.82,31.86q-9.42.79-10.37,11.23Q34.08,53.53,43.82,54q9.74-.47,10.37-10.91Q53.25,32.65,43.82,31.86Zm0,17.08q-4.24-.32-4.56-5.85,0.31-5.53,4.56-5.85,4.24,0.32,4.55,5.85Q48.06,48.63,43.82,48.94Z"/><path class="cls-1" d="M72.72,32q-2.67.16-2.83,3.32V45.78q-0.16,3.32-3.77,3.64-3.62-.32-3.77-3.64V35.34Q62.2,32.18,59.53,32q-2.83.16-3,3.32V45.78q0.31,8.06,9.58,8.22,9.27-.16,9.58-8.22V35.34Q75.55,32.18,72.72,32Z"/><path class="cls-1" d="M95.81,22.69q-2.67.16-2.83,3.16v8.06a7.75,7.75,0,0,0-5.5-2.06q-8.64.63-9.42,11.54,0.78,10,9.58,10.6,3.77-.16,5.34-2.37a2.58,2.58,0,0,0,2.83,2.21q2.67,0,2.83-3v-25Q98.48,22.85,95.81,22.69ZM88.43,48.94q-4.24-.32-4.56-5.85,0.31-5.53,4.56-5.85,4.24,0.32,4.55,5.69Q92.67,48.62,88.43,48.94Z"/><path class="cls-2" d="M115.76,32a2.67,2.67,0,0,0-2.51,2.06l-3.77,11.54-3.77-11.54A2.5,2.5,0,0,0,103.19,32a2.77,2.77,0,0,0-3,2.85,4.64,4.64,0,0,0,.31,1.74l5.81,15a2.86,2.86,0,0,0,3.14,2.21,2.74,2.74,0,0,0,3.14-2.21l5.81-15c0.1-.21.16-0.26,0.16-0.16a5.26,5.26,0,0,0,.31-1.58Q118.74,32.18,115.76,32Z"/><path class="cls-2" d="M123.14,23.32A3.23,3.23,0,0,0,120,26.48a3.3,3.3,0,0,0,3.14,3.32,3.23,3.23,0,0,0,3.3-3.32A3.3,3.3,0,0,0,123.14,23.32Z"/><path class="cls-2" d="M123.14,32q-2.67.16-2.83,3.32v15.5q0.15,3,2.83,3,2.83,0,3-3V35.34Q126,32.18,123.14,32Z"/><path class="cls-2" d="M148.74,42.46q-1.26-9.8-10.37-10.59Q129,32.65,128,43.09,128.64,53.53,138.85,54q8.32-.47,9.42-4.59a2.66,2.66,0,0,0-2.36-2.53,5.43,5.43,0,0,0-2.2.95,10,10,0,0,1-4.4,1.42q-4.71-.16-5.5-4.27h12.41A2.23,2.23,0,0,0,148.74,42.46Zm-15.08-1.27q0.78-4.42,4.71-4.59,3.92,0.16,4.55,4.59h-9.27Z"/><path class="cls-2" d="M177.17,32q-2,0-2.67,2.37L171,45.46l-3.46-10.91Q166.8,32,164.76,32a2.89,2.89,0,0,0-3,2.53l-3.46,10.91L155,34.39A3,3,0,0,0,152.2,32q-2.67.16-2.83,2.37a8.79,8.79,0,0,0,.63,2.85l4.87,13.92a3.48,3.48,0,0,0,3.46,2.69,3.07,3.07,0,0,0,3.3-2.53l3-9.33h0.16l3,9.33a3.2,3.2,0,0,0,3.3,2.53,3.49,3.49,0,0,0,3.46-2.69l5-14.07a7.62,7.62,0,0,0,.47-2.21A2.7,2.7,0,0,0,177.17,32Z"/></svg>