<?xml version="1.0" encoding="utf-8"?>
<!-- Generator: Adobe Illustrator 17.0.0, SVG Export Plug-In . SVG Version: 6.00 Build 0)  -->
<!DOCTYPE svg PUBLIC "-//W3C//DTD SVG 1.1//EN" "http://www.w3.org/Graphics/SVG/1.1/DTD/svg11.dtd">
<svg version="1.1" id="图层_1" xmlns="http://www.w3.org/2000/svg" xmlns:xlink="http://www.w3.org/1999/xlink" x="0px" y="0px"
	 width="156px" height="64px" viewBox="0.232 0 156 64" enable-background="new 0.232 0 156 64" xml:space="preserve">
<g>
	<path fill="#FFFFFF" d="M41.327,24.169c0.516-0.096,0.955-0.438,1.173-0.917c1.489-3.282,4.778-5.403,8.38-5.403
		c5.071,0,9.197,4.126,9.197,9.197c0,0.54-0.168,1.712-0.209,1.969c-0.014,0.085-0.022,0.176-0.022,0.263
		c0,0.778,0.552,1.44,1.316,1.581c1.761,0.225,1.84,1.04,2.101,2.172c0,0,0.915-0.653,1.873-0.653c0.707,0,1.337,0.386,1.337,0.386
		s0.261-2.956-3.246-4.629c0.046-0.443,0.069-0.808,0.069-1.089c0-6.846-5.569-12.416-12.416-12.416
		c-4.146,0-8.054,2.11-10.343,5.545c-1.327-0.797-2.839-1.215-4.41-1.215c-4.735,0-8.587,3.853-8.587,8.588
		c0,0,0.83-0.224,1.702-0.224c0.827,0,1.516,0.224,1.516,0.224c0-2.961,2.409-5.37,5.369-5.37c1.421,0,2.762,0.551,3.776,1.552
		c0.304,0.3,0.704,0.465,1.127,0.465C41.131,24.198,41.233,24.187,41.327,24.169z"/>
	<path fill="#FFFFFF" d="M32.678,43.138c-0.258,0-0.675,0.13-1.254,0.386c-0.965,0.451-1.866,0.675-2.701,0.675
		c-2.894-0.193-4.438-1.993-4.631-5.403c0.193-3.537,1.737-5.403,4.631-5.596c0.835,0,1.703,0.161,2.605,0.482
		c0.514,0.193,0.932,0.289,1.254,0.289c0.9-0.064,1.382-0.611,1.447-1.64c-0.13-1.607-1.898-2.509-5.306-2.701
		c-5.275,0.386-8.104,3.41-8.49,9.069c0.386,5.596,3.215,8.555,8.49,8.876c3.666-0.065,5.531-0.965,5.596-2.701
		C34.188,43.782,33.642,43.203,32.678,43.138z"/>
	<path fill="#FFFFFF" d="M37.598,28.474c-1.094,0.065-1.673,0.708-1.736,1.929v15.243c0.063,1.223,0.642,1.833,1.736,1.833
		c1.158,0,1.768-0.611,1.833-1.833V30.403C39.366,29.182,38.755,28.538,37.598,28.474z"/>
	<path fill="#FFFFFF" d="M47.149,34.069c-3.859,0.322-5.982,2.605-6.368,6.85c0.256,4.245,2.379,6.464,6.368,6.657
		c3.987-0.193,6.11-2.412,6.368-6.657C53.131,36.674,51.008,34.392,47.149,34.069z M47.149,44.489
		c-1.737-0.128-2.67-1.318-2.798-3.57c0.128-2.25,1.061-3.44,2.798-3.57c1.736,0.13,2.668,1.319,2.798,3.57
		C49.817,43.171,48.886,44.361,47.149,44.489z"/>
	<path fill="#FFFFFF" d="M64.901,34.165c-1.094,0.065-1.673,0.74-1.737,2.026v6.368c-0.065,1.351-0.837,2.091-2.315,2.219
		c-1.48-0.128-2.252-0.868-2.316-2.219v-6.368c-0.065-1.286-0.644-1.961-1.737-2.026c-1.158,0.065-1.77,0.74-1.833,2.026v6.368
		c0.128,3.28,2.089,4.952,5.885,5.017c3.794-0.065,5.755-1.737,5.885-5.017v-6.368C66.669,34.906,66.059,34.23,64.901,34.165z"/>
	<path fill="#FFFFFF" d="M79.083,28.474c-1.094,0.065-1.673,0.708-1.737,1.929v4.92c-0.902-0.835-2.026-1.254-3.377-1.254
		c-3.538,0.258-5.468,2.605-5.789,7.043c0.321,4.052,2.282,6.208,5.885,6.464c1.544-0.065,2.636-0.546,3.28-1.447
		c0.193,0.902,0.772,1.351,1.737,1.351c1.093,0,1.672-0.611,1.737-1.833V30.403C80.755,29.182,80.176,28.538,79.083,28.474z
		 M74.549,44.489c-1.737-0.128-2.67-1.318-2.798-3.57c0.128-2.25,1.061-3.44,2.798-3.57c1.736,0.13,2.668,1.287,2.798,3.473
		C77.217,43.138,76.285,44.361,74.549,44.489z"/>
</g>
<g opacity="0.6">
	<path fill="#FFFFFF" d="M91.335,34.165c-0.709,0-1.223,0.419-1.543,1.254l-2.316,7.043l-2.316-7.043
		c-0.258-0.835-0.772-1.254-1.543-1.254c-1.158,0.065-1.77,0.644-1.833,1.737c0,0.386,0.063,0.74,0.193,1.061l3.57,9.165
		c0.321,0.965,0.965,1.414,1.93,1.351c1.028,0.063,1.672-0.386,1.93-1.351l3.57-9.165c0.063-0.128,0.096-0.16,0.096-0.096
		c0.128-0.386,0.193-0.707,0.193-0.965C93.2,34.809,92.557,34.23,91.335,34.165z"/>
	<path fill="#FFFFFF" d="M95.87,28.859c-1.158,0.13-1.801,0.772-1.929,1.93c0.128,1.223,0.772,1.898,1.929,2.026
		c1.286-0.128,1.961-0.804,2.026-2.026C97.766,29.631,97.091,28.989,95.87,28.859z"/>
	<path fill="#FFFFFF" d="M95.87,34.165c-1.094,0.065-1.673,0.74-1.736,2.026v9.455c0.063,1.223,0.642,1.833,1.736,1.833
		c1.158,0,1.768-0.611,1.833-1.833v-9.455C97.638,34.906,97.028,34.23,95.87,34.165z"/>
	<path fill="#FFFFFF" d="M111.596,40.533c-0.516-3.987-2.638-6.141-6.368-6.464c-3.859,0.322-5.982,2.605-6.368,6.85
		c0.256,4.245,2.475,6.464,6.657,6.657c3.408-0.193,5.338-1.125,5.789-2.798c-0.13-0.9-0.612-1.414-1.447-1.544
		c-0.258,0-0.709,0.193-1.351,0.579c-1.094,0.579-1.994,0.868-2.701,0.868c-1.93-0.064-3.056-0.932-3.377-2.605h7.622
		C111.08,42.077,111.596,41.563,111.596,40.533z M102.334,39.761c0.321-1.8,1.286-2.733,2.894-2.798
		c1.607,0.065,2.54,0.998,2.798,2.798H102.334z"/>
	<path fill="#FFFFFF" d="M129.058,34.165c-0.837,0-1.384,0.482-1.64,1.447l-2.123,6.753l-2.122-6.657
		c-0.323-1.028-0.902-1.544-1.737-1.544c-0.965,0-1.577,0.516-1.833,1.544l-2.123,6.657l-2.026-6.753
		c-0.258-0.9-0.836-1.382-1.736-1.447c-1.094,0.065-1.673,0.547-1.737,1.447c0,0.451,0.128,1.03,0.386,1.737l2.991,8.49
		c0.386,1.094,1.093,1.64,2.123,1.64c1.093,0,1.768-0.514,2.026-1.544l1.833-5.692h0.096l1.833,5.692
		c0.321,1.03,0.996,1.544,2.026,1.544c1.028,0,1.737-0.546,2.123-1.64l3.087-8.586c0.193-0.579,0.289-1.028,0.289-1.351
		C130.73,34.809,130.151,34.23,129.058,34.165z"/>
</g>
</svg>
